<svg width="38" height="106" viewBox="0 0 38 106" fill="none" xmlns="http://www.w3.org/2000/svg">
<path d="M30.8288 63.1887C30.8534 51.3251 27.395 37.9547 22.1254 27.6094C19.0309 21.7968 15.2589 16.4562 10.9057 11.724C8.71667 9.24206 6.41487 6.88404 4.00921 4.65901C3.30325 3.98121 -0.0592926 1.97282 0.0993577 0.943348C0.625781 -2.52475 11.1944 7.26607 12.2626 8.4078C16.7829 13.2198 21.1583 18.4028 24.4711 24.3407C30.0411 34.298 34.4048 46.5354 35.2091 58.2665C35.6768 65.094 36.2178 71.9336 35.3144 78.8064C34.936 81.702 34.3119 84.552 33.4505 87.3191C32.8575 89.2936 32.1534 91.2255 31.3424 93.1036C30.7267 94.4749 29.299 95.8891 28.9242 97.2931C31.2687 97.0686 33.4952 94.4752 35.9115 94.0336C38.7774 93.5201 37.8325 95.9878 36.3434 97.3169C33.8771 99.3426 31.303 101.204 28.6347 102.89C26.4112 104.415 23.9055 106.958 21.6632 104.415C19.7055 102.182 18.489 99.0401 17.0305 96.4586C16.0475 94.7102 13.0982 91.4815 13.9271 89.2221C16.5375 82.1319 21.8965 97.7918 22.6882 98.6852C23.3429 97.7187 23.6032 96.3172 24.105 95.225C24.8358 93.6376 25.7646 92.1925 26.4873 90.5984C27.8625 87.5654 28.9607 84.3891 29.7658 81.1164C31.1761 75.2812 31.5429 69.1993 30.8459 63.2097C30.8086 58.8908 30.9318 64.0261 30.8288 63.1887Z" fill="#FFC929"/>
</svg>
