<svg width="39" height="106" viewBox="0 0 39 106" fill="none" xmlns="http://www.w3.org/2000/svg">
<path d="M7.35088 63.1887C7.32627 51.3251 10.7847 37.9547 16.0543 27.6094C19.1488 21.7968 22.9208 16.4562 27.2739 11.724C29.463 9.24206 31.7648 6.88404 34.1705 4.65901C34.8764 3.98121 38.239 1.97282 38.0803 0.943348C37.5539 -2.52475 26.9853 7.26607 25.9171 8.4078C21.3968 13.2198 17.0214 18.4028 13.7086 24.3407C8.13862 34.298 3.77489 46.5354 2.97061 58.2665C2.50289 65.094 1.96188 71.9336 2.86528 78.8064C3.24369 81.702 3.86775 84.552 4.72921 87.3191C5.32224 89.2936 6.02627 91.2255 6.83724 93.1036C7.45297 94.4749 8.88071 95.8891 9.25547 97.2931C6.911 97.0686 4.68448 94.4752 2.26816 94.0336C-0.597732 93.5201 0.347174 95.9878 1.8363 97.3169C4.30255 99.3426 6.87672 101.204 9.54496 102.89C11.7685 104.415 14.2742 106.958 16.5165 104.415C18.4742 102.182 19.6907 99.0401 21.1491 96.4586C22.1322 94.7102 25.0815 91.4815 24.2526 89.2221C21.6422 82.1319 16.2832 97.7918 15.4915 98.6852C14.8368 97.7187 14.5765 96.3172 14.0747 95.225C13.3439 93.6376 12.4151 92.1925 11.6924 90.5984C10.3172 87.5654 9.21899 84.3891 8.41393 81.1164C7.00363 75.2812 6.63677 69.1993 7.33378 63.2097C7.37111 58.8908 7.2479 64.0261 7.35088 63.1887Z" fill="#FFC929"/>
</svg>
