<svg width="150" height="40" viewBox="0 0 150 40" fill="none" xmlns="http://www.w3.org/2000/svg">
<path d="M24.241 24.241V27.6982C24.241 34.3586 18.9439 39.9107 12.2846 39.9989C10.6816 40.0282 9.08865 39.7391 7.59812 39.1484C6.10759 38.5577 4.74907 37.6772 3.60125 36.5578C2.45343 35.4383 1.53912 34.1023 0.911285 32.627C0.283447 31.1518 -0.0454409 29.5666 -0.0563305 27.9633C-0.0672202 26.36 0.240105 24.7705 0.847845 23.2869C1.45559 21.8032 2.35166 20.4549 3.48417 19.32C4.61668 18.185 5.96311 17.2861 7.44548 16.6752C8.92785 16.0643 10.5167 15.7537 12.12 15.7611H15.759V23.2468C15.759 23.5105 15.8637 23.7634 16.0502 23.9498C16.2366 24.1363 16.4895 24.241 16.7532 24.241H24.241Z" fill="#ED0D7D"/>
<path d="M24.241 16.7543V24.241H16.7532C16.4895 24.241 16.2366 24.1363 16.0502 23.9499C15.8637 23.7634 15.759 23.5105 15.759 23.2468V15.7612H23.2468C23.3773 15.761 23.5066 15.7866 23.6272 15.8364C23.7478 15.8863 23.8574 15.9594 23.9497 16.0517C24.0421 16.1439 24.1153 16.2534 24.1653 16.374C24.2153 16.4946 24.241 16.6238 24.241 16.7543Z" fill="#FFCA2A"/>
<path d="M39.9999 12.1211C40.0001 13.7128 39.6866 15.289 39.0775 16.7596C38.4684 18.2302 37.5756 19.5664 36.45 20.6919C35.3244 21.8173 33.9881 22.7101 32.5175 23.319C31.0468 23.928 29.4706 24.2413 27.8789 24.241H24.241V16.7543C24.241 16.6238 24.2152 16.4945 24.1653 16.374C24.1153 16.2534 24.042 16.1439 23.9497 16.0516C23.8574 15.9594 23.7477 15.8863 23.6271 15.8364C23.5065 15.7866 23.3773 15.761 23.2467 15.7611H15.7589V12.1211C15.7438 10.5198 16.0462 8.93134 16.6485 7.44757C17.2509 5.96381 18.1413 4.61411 19.2683 3.47645C20.3953 2.33879 21.7365 1.43572 23.2145 0.819418C24.6926 0.203118 26.2781 -0.114199 27.8794 -0.114199C29.4808 -0.114199 31.0663 0.203118 32.5443 0.819418C34.0223 1.43572 35.3636 2.33879 36.4906 3.47645C37.6176 4.61411 38.508 5.96381 39.1103 7.44757C39.7127 8.93134 40.015 10.5198 39.9999 12.1211Z" fill="#2F2F82"/>
<path d="M42.917 29.649L42.9428 29.5758C43.1004 29.1301 43.4064 28.7522 43.8096 28.5053C44.2128 28.2585 44.6886 28.1578 45.1572 28.2201C45.3515 28.2419 45.547 28.2523 45.7425 28.2513C46.9605 28.2513 47.7396 27.4389 47.7396 25.7475V12.1469C47.7394 11.8048 47.8067 11.4659 47.9375 11.1497C48.0684 10.8335 48.2603 10.5462 48.5022 10.3042C48.7441 10.0622 49.0313 9.87025 49.3474 9.73927C49.6635 9.60829 50.0024 9.54088 50.3445 9.54088C50.6867 9.54088 51.0256 9.60829 51.3417 9.73927C51.6578 9.87025 51.945 10.0622 52.1869 10.3042C52.4288 10.5462 52.6207 10.8335 52.7515 11.1497C52.8824 11.4659 52.9497 11.8048 52.9495 12.1469V25.7475C52.9495 29.706 50.9869 32.5144 46.6227 32.5144C45.6468 32.5144 44.9463 32.4509 44.3631 32.3153C44.0853 32.2479 43.8248 32.123 43.5983 31.9487C43.3717 31.7744 43.1843 31.5545 43.048 31.3033C42.9118 31.052 42.8297 30.775 42.8071 30.49C42.7845 30.2051 42.822 29.9186 42.917 29.649ZM47.3727 5.26058C47.3455 4.85984 47.4 4.45775 47.5331 4.07876C47.6662 3.69977 47.8749 3.3518 48.1466 3.056C48.4184 2.76021 48.7474 2.52277 49.1138 2.35812C49.4802 2.19347 49.8762 2.10505 50.2778 2.09824C50.8662 2.08163 51.4465 2.2388 51.9461 2.55013C52.4457 2.86146 52.8424 3.31313 53.0867 3.84868C53.3311 4.38424 53.4121 4.97992 53.3198 5.56129C53.2274 6.14265 52.9658 6.6839 52.5675 7.11739C52.1693 7.55089 51.6521 7.85739 51.0807 7.99859C50.5092 8.1398 49.9088 8.10944 49.3545 7.91131C48.8002 7.71319 48.3166 7.35608 47.9641 6.88463C47.6116 6.41318 47.4059 5.8483 47.3727 5.26058Z" fill="#2F2F82"/>
<path d="M54.9703 17.6947C54.9703 13.0938 58.3199 9.13518 63.8688 9.13518C69.4855 9.13518 72.7995 13.0938 72.7995 17.6947C72.7995 22.2956 69.4844 26.2886 63.8688 26.2886C58.3188 26.2886 54.9703 22.2967 54.9703 17.6947ZM67.4518 17.6947C67.4518 15.5298 66.166 13.7361 63.8655 13.7361C61.5984 13.7361 60.3471 15.5298 60.3471 17.6947C60.3471 19.894 61.5984 21.6877 63.8655 21.6877C66.1735 21.6877 67.4551 19.894 67.4551 17.6947H67.4518Z" fill="#2F2F82"/>
<path d="M74.8224 17.6947C74.8224 13.0938 78.1708 9.13518 83.7197 9.13518C89.3364 9.13518 92.6505 13.0938 92.6505 17.6947C92.6505 22.2956 89.3353 26.2886 83.7197 26.2886C78.1708 26.2886 74.8224 22.2967 74.8224 17.6947ZM87.3039 17.6947C87.3039 15.5298 86.0181 13.7361 83.7176 13.7361C81.4515 13.7361 80.1991 15.5298 80.1991 17.6947C80.1991 19.894 81.4515 21.6877 83.7176 21.6877C86.0202 21.6877 87.306 19.894 87.306 17.6947H87.3039Z" fill="#2F2F82"/>
<path d="M108.375 26.3393C107.684 26.3393 107.022 26.0648 106.533 25.5763C106.044 25.0878 105.77 24.4252 105.77 23.7343V16.8996C105.77 14.9036 104.722 14.1935 103.097 14.1935C101.541 14.1935 100.527 15.0392 99.9166 15.7838V23.7343C99.9167 24.0764 99.8495 24.4152 99.7186 24.7313C99.5877 25.0475 99.3959 25.3347 99.1539 25.5766C98.912 25.8185 98.6248 26.0104 98.3087 26.1413C97.9926 26.2721 97.6538 26.3394 97.3116 26.3393C96.6207 26.3393 95.9582 26.0648 95.4696 25.5763C94.9811 25.0878 94.7066 24.4252 94.7066 23.7343V13.2122C94.7066 12.3598 95.0453 11.5423 95.648 10.9395C96.2507 10.3368 97.0682 9.99819 97.9206 9.99819C98.1828 9.99804 98.4424 10.0496 98.6846 10.1498C98.9269 10.2501 99.1469 10.3971 99.3323 10.5825C99.5177 10.7678 99.6647 10.9879 99.765 11.2302C99.8652 11.4724 99.9167 11.732 99.9166 11.9942C100.898 10.8439 102.822 9.59254 105.568 9.59254C109.288 9.59254 110.981 11.7574 110.981 14.7681V23.7343C110.981 24.0765 110.914 24.4153 110.783 24.7314C110.652 25.0475 110.46 25.3348 110.218 25.5767C109.976 25.8186 109.688 26.0104 109.372 26.1413C109.056 26.2721 108.717 26.3394 108.375 26.3393Z" fill="#2F2F82"/>
<path d="M119.066 12.6031V23.6719C119.066 25.1094 117.93 26.3274 116.492 26.3435C116.147 26.348 115.805 26.2839 115.486 26.155C115.166 26.0261 114.875 25.835 114.63 25.5927C114.384 25.3505 114.19 25.0619 114.057 24.7438C113.924 24.4257 113.856 24.0844 113.856 23.7396V12.6031L113.91 12.5784C114.617 13.1933 115.523 13.5319 116.461 13.5319C117.398 13.5319 118.304 13.1933 119.012 12.5784L119.066 12.6031Z" fill="#2F2F82"/>
<path d="M124.837 26.3392C124.146 26.3389 123.484 26.0644 122.995 25.5759C122.507 25.0874 122.233 24.4249 122.233 23.7342V7.85475C122.233 4.40404 124.669 2.10357 128.086 2.10357C129.059 2.09341 130.025 2.2529 130.943 2.57486C131.194 2.66878 131.421 2.81792 131.607 3.01126C131.792 3.2046 131.933 3.43721 132.016 3.69191C132.1 3.94661 132.126 4.2169 132.091 4.48281C132.057 4.74873 131.963 5.00348 131.817 5.22825L131.741 5.34446C131.54 5.65068 131.251 5.88861 130.911 6.02676C130.572 6.16491 130.199 6.19676 129.841 6.1181C129.642 6.0788 129.439 6.06005 129.236 6.06215C128.255 6.06215 127.443 6.70774 127.443 7.85475V10.0067H131.604V14.5399H127.443V23.7428C127.443 24.0849 127.375 24.4237 127.244 24.7397C127.113 25.0558 126.922 25.3429 126.68 25.5848C126.438 25.8267 126.151 26.0186 125.835 26.1495C125.519 26.2804 125.18 26.3478 124.838 26.3478L124.837 26.3392Z" fill="#2F2F82"/>
<path d="M131.379 29.6835C131.438 29.3163 131.626 28.9822 131.909 28.7414C132.193 28.5006 132.553 28.3688 132.925 28.3697C134.108 28.3697 134.853 28.133 135.124 27.4562L135.495 26.576L128.996 9.99819H132.303C132.939 9.9975 133.559 10.1936 134.08 10.5596C134.6 10.9257 134.994 11.4437 135.208 12.0426L138.166 20.3471L141.286 11.6724C141.463 11.1808 141.788 10.7558 142.215 10.4554C142.643 10.155 143.152 9.99379 143.675 9.99389C144.089 9.99386 144.496 10.095 144.862 10.2886C145.228 10.4821 145.541 10.7622 145.773 11.1044C146.006 11.4466 146.151 11.8404 146.197 12.2517C146.242 12.663 146.187 13.0792 146.035 13.464L140.03 28.6699C138.71 32.1206 136.24 32.8985 133.127 32.9663C132.985 32.9663 132.774 32.9566 132.535 32.9394C132.324 32.9246 132.119 32.866 131.932 32.7675C131.745 32.669 131.58 32.5326 131.448 32.367C131.317 32.2015 131.221 32.0104 131.168 31.8059C131.114 31.6014 131.103 31.3879 131.136 31.1791L131.379 29.6835Z" fill="#2F2F82"/>
<path d="M120.379 9.56994C120.381 10.1286 120.264 10.6814 120.038 11.192C119.811 11.7027 119.479 12.1597 119.064 12.5332C119.044 11.8559 118.762 11.2128 118.276 10.7406C117.79 10.2683 117.139 10.0042 116.461 10.0042C115.783 10.0042 115.133 10.2683 114.647 10.7406C114.161 11.2128 113.878 11.8559 113.858 12.5332C113.444 12.1592 113.113 11.702 112.887 11.1913C112.662 10.6807 112.546 10.1282 112.549 9.56994C112.549 8.53091 112.962 7.53443 113.696 6.79972C114.431 6.06501 115.427 5.65226 116.466 5.65226C117.506 5.65226 118.502 6.06501 119.237 6.79972C119.971 7.53443 120.384 8.53091 120.384 9.56994H120.379Z" fill="#ED0D7D"/>
<path d="M119.064 12.5332C118.349 13.1759 117.422 13.5316 116.461 13.5316C115.5 13.5316 114.573 13.1759 113.858 12.5332C113.878 11.8558 114.16 11.2127 114.646 10.7405C115.132 10.2683 115.783 10.0041 116.461 10.0041C117.139 10.0041 117.79 10.2683 118.276 10.7405C118.762 11.2127 119.044 11.8558 119.064 12.5332Z" fill="#FFCA2A"/>
<path d="M143.956 4.03286H142.976V3.5067H145.574V4.03286H144.584V6.94772H143.956V4.03286Z" fill="#2F2F82"/>
<path d="M148.867 5.54356C148.846 5.09918 148.82 4.56333 148.826 4.09958H148.81C148.702 4.51814 148.555 4.98189 148.402 5.41552L147.902 6.90684H147.416L146.957 5.43596C146.824 4.99696 146.702 4.52782 146.61 4.09958H146.6C146.584 4.54827 146.564 5.09487 146.538 5.56401L146.462 6.94773H145.875L146.105 3.50456H146.932L147.381 4.88828C147.503 5.29178 147.611 5.69958 147.697 6.08263H147.712C147.805 5.71034 147.927 5.2864 148.054 4.8829L148.53 3.50456H149.348L149.547 6.94773H148.933L148.867 5.54356Z" fill="#2F2F82"/>
</svg>
