<svg width="27" height="20" viewBox="0 0 27 20" fill="none" xmlns="http://www.w3.org/2000/svg">
<path d="M0.432684 9.07706C0.555567 7.4079 2.03528 7.46422 3.0593 8.36535C4.17037 9.35354 4.59533 11.376 5.31215 12.6663C6.29521 14.4788 6.23376 14.4429 7.62131 12.8967C8.91778 11.4884 10.3049 10.1663 11.7737 8.93882C14.4669 6.64501 17.5082 4.68401 20.4114 2.66668C21.6095 1.83211 23.3861 0.265353 24.9119 0.106629C26.5196 -0.0879349 26.5196 0.859276 25.6339 1.87306C24.5586 3.10188 22.8997 4.10543 21.6555 5.16018C20.1605 6.42484 18.6859 7.72023 17.2522 9.03098C14.5591 11.5296 11.7379 13.9924 9.5004 16.9262C7.67252 19.3275 6.17744 20.6178 3.97579 17.6737C2.43976 15.6257 0.130597 11.7498 0.432684 9.09754C0.458285 8.76474 0.340522 9.90652 0.432684 9.07706Z" fill="#00CB21"/>
</svg>
