<svg width="97" height="10" viewBox="0 0 97 10" fill="none" xmlns="http://www.w3.org/2000/svg">
<path d="M96.3213 1.30892C95.8456 1.27228 95.3761 1.2961 94.898 1.30721C94.4199 1.31831 93.9533 1.30738 93.4818 1.27494C92.4322 1.20482 91.3827 1.1347 90.3294 1.07337C88.3047 0.952403 86.2815 0.874721 84.2566 0.862106C82.3993 0.84841 80.5432 0.865009 78.6845 0.925038L77.2466 0.971478C75.4051 1.05262 73.5719 1.13784 71.7275 1.25375C67.4346 1.51376 63.1378 1.78254 58.8482 2.13345C54.6564 2.47687 50.4653 2.8376 46.2759 3.24595C44.2383 3.44611 42.1636 3.63881 40.1061 3.85262C37.8815 4.08483 35.6563 4.29972 33.4365 4.54911L19.6868 6.12437C15.7076 6.57794 11.751 7.20413 7.81526 7.95101C5.27274 8.4362 2.74058 8.98172 0.222574 9.5788C3.14649 9.68373 6.07123 9.69907 8.9968 9.62481C10.9126 9.56293 12.8203 9.50133 14.712 9.33621C15.9354 9.24036 17.1584 9.13151 18.4051 9.00024C19.1587 8.91955 19.9072 8.80869 20.6601 8.70636L26.7042 7.90439C29.0079 7.60029 31.3109 7.27453 33.6236 6.99181L40.7572 6.1243C42.8948 5.86024 45.0379 5.63932 47.1762 5.3969C49.3145 5.15448 51.3567 4.96717 53.4472 4.76096C55.5378 4.55475 57.6618 4.36914 59.7735 4.18392C61.8853 3.9987 64.0682 3.85885 66.2178 3.70274C70.1417 3.41565 74.0737 3.23664 78.0024 3.08375C80.192 3.01304 82.3738 2.8429 84.5564 2.69439C86.739 2.54589 88.8593 2.36905 91.0072 2.16532C91.8793 2.08082 92.756 2.00916 93.6269 1.89002C94.0491 1.83538 94.4681 1.75675 94.882 1.65446C95.2467 1.56033 95.6061 1.43604 95.9752 1.35044L96.3089 1.30498C96.3089 1.30498 96.3254 1.30879 96.3213 1.30892Z" fill="#ED037C"/>
</svg>
