<svg width="264" height="15" viewBox="0 0 264 15" fill="none" xmlns="http://www.w3.org/2000/svg">
<path d="M263.998 2.21775C262.699 2.09679 261.411 2.11693 260.101 2.10685C258.79 2.09677 257.513 2.03629 256.225 1.92541C253.358 1.68347 250.491 1.44155 247.612 1.21978C242.08 0.786312 236.547 0.453649 231.003 0.272197C225.918 0.100826 220.833 0 215.737 0H211.794C206.743 0.0504032 201.714 0.110908 196.652 0.241956C184.869 0.524214 173.076 0.82661 161.293 1.32056C149.779 1.80443 138.266 2.32863 126.752 2.96371C121.152 3.27621 115.451 3.56855 109.795 3.91129C103.68 4.28428 97.5643 4.61695 91.4602 5.03026L53.6486 7.66129C42.7061 8.41734 31.8084 9.5766 20.9555 11.0181C13.9442 11.9556 6.95528 13.0343 0 14.2339C7.99689 14.6976 16.005 14.953 24.0243 15C29.2771 15 34.5076 15 39.7045 14.7581C43.0645 14.627 46.4245 14.4657 49.8518 14.254C51.9238 14.123 53.9846 13.9214 56.0567 13.7399L72.6889 12.3286C79.0281 11.7944 85.3674 11.2097 91.7291 10.7258L111.352 9.24396C117.232 8.79033 123.123 8.4375 129.003 8.03427C134.883 7.63105 140.494 7.34879 146.24 7.02621C151.986 6.70363 157.821 6.43147 163.623 6.15929C169.424 5.88711 175.416 5.72582 181.319 5.5242C192.093 5.15122 202.879 5.03023 213.654 4.96975C219.657 4.96975 225.649 4.73792 231.641 4.55647C237.633 4.37502 243.457 4.12298 249.36 3.81048C251.756 3.67943 254.164 3.57862 256.561 3.36693C257.723 3.27156 258.878 3.12015 260.022 2.91332C261.03 2.72179 262.027 2.4597 263.046 2.28833L263.965 2.20766C263.965 2.20766 264.009 2.21775 263.998 2.21775Z" fill="#ED037C"/>
</svg>
