<svg width="100" height="100" viewBox="0 0 100 100" fill="none" xmlns="http://www.w3.org/2000/svg">
<rect width="100" height="100" rx="25" fill="#2A2A84"/>
<path d="M69 37.4391V61.2191C69 63.1591 67.42 64.9391 65.48 65.1791L64.86 65.2591C61.58 65.6991 56.96 67.0591 53.24 68.6191C51.94 69.1591 50.5 68.1791 50.5 66.7591V38.9391C50.5 38.1991 50.92 37.5191 51.58 37.1591C55.24 35.1791 60.78 33.4191 64.54 33.0991H64.66C67.06 33.0991 69 35.0391 69 37.4391Z" fill="white"/>
<path d="M46.4205 37.1591C42.7605 35.1791 37.2205 33.4191 33.4605 33.0991H33.3205C30.9205 33.0991 28.9805 35.0391 28.9805 37.4391V61.2191C28.9805 63.1591 30.5605 64.9391 32.5005 65.1791L33.1205 65.2591C36.4005 65.6991 41.0205 67.0591 44.7405 68.6191C46.0405 69.1591 47.4805 68.1791 47.4805 66.7591V38.9391C47.4805 38.1791 47.0805 37.5191 46.4205 37.1591ZM35.0005 43.2191H39.5005C40.3205 43.2191 41.0005 43.8991 41.0005 44.7191C41.0005 45.5591 40.3205 46.2191 39.5005 46.2191H35.0005C34.1805 46.2191 33.5005 45.5591 33.5005 44.7191C33.5005 43.8991 34.1805 43.2191 35.0005 43.2191ZM41.0005 52.2191H35.0005C34.1805 52.2191 33.5005 51.5591 33.5005 50.7191C33.5005 49.8991 34.1805 49.2191 35.0005 49.2191H41.0005C41.8205 49.2191 42.5005 49.8991 42.5005 50.7191C42.5005 51.5591 41.8205 52.2191 41.0005 52.2191Z" fill="white"/>
<path d="M80.1113 48.7367C80.1113 47.7945 80.8751 47.0308 81.8172 47.0308H85.117C86.0592 47.0308 86.8229 47.7945 86.8229 48.7367C86.8229 49.6788 86.0592 50.4426 85.117 50.4426H81.8172C80.8751 50.4426 80.1113 49.6788 80.1113 48.7367Z" fill="white"/>
<path d="M74.4302 69.7389C73.6499 69.2371 73.4169 68.2018 73.907 67.4141C74.4076 66.6096 75.4699 66.3705 76.2669 66.8831L79.0841 68.6949C79.8644 69.1967 80.0974 70.232 79.6072 71.0197C79.1067 71.8243 78.0444 72.0633 77.2474 71.5508L74.4302 69.7389Z" fill="white"/>
<path d="M73.8843 30.0847C73.3949 29.2971 73.6282 28.2624 74.4084 27.7611L77.2251 25.9514C78.0221 25.4393 79.084 25.6788 79.584 26.4834C80.0734 27.271 79.8401 28.3057 79.0599 28.807L76.2432 30.6168C75.4462 31.1288 74.3843 30.8893 73.8843 30.0847Z" fill="white"/>
<path d="M13 48.7367C13 47.7945 13.7638 47.0308 14.7059 47.0308H18.0057C18.9478 47.0308 19.7116 47.7945 19.7116 48.7367C19.7116 49.6788 18.9478 50.4426 18.0057 50.4426H14.7059C13.7638 50.4426 13 49.6788 13 48.7367Z" fill="white"/>
<path d="M20.2137 71.0117C19.7236 70.224 19.9565 69.1887 20.7368 68.6869L23.5541 66.875C24.351 66.3625 25.4133 66.6015 25.9139 67.406C26.404 68.1938 26.171 69.229 25.3907 69.7309L22.5735 71.5427C21.7765 72.0552 20.7143 71.8162 20.2137 71.0117Z" fill="white"/>
<path d="M20.737 28.7881C19.9566 28.2866 19.7232 27.2516 20.2129 26.4637C20.7131 25.6589 21.7753 25.4194 22.5725 25.9316L25.3906 27.7423C26.171 28.2438 26.4044 29.2789 25.9147 30.0667C25.4145 30.8715 24.3524 31.1111 23.5552 30.5988L20.737 28.7881Z" fill="white"/>
</svg>
