<svg width="66" height="9" viewBox="0 0 66 9" fill="none" xmlns="http://www.w3.org/2000/svg">
<path d="M65.556 1.30631C65.2322 1.26476 64.9134 1.28371 64.5886 1.28987C64.2638 1.29603 63.9465 1.28027 63.6257 1.24296C62.9116 1.16201 62.1974 1.08106 61.4808 1.00886C60.1033 0.866982 58.7273 0.768396 57.351 0.734836C56.0885 0.70193 54.8272 0.699318 53.5647 0.740094L52.588 0.771639C51.3373 0.833701 50.0924 0.899923 48.8402 0.996706C45.9255 1.21219 43.0084 1.43642 40.097 1.74282C37.2521 2.04273 34.4078 2.35997 31.5652 2.72482C30.1827 2.90383 28.7749 3.07498 27.379 3.26743C25.8698 3.47653 24.3599 3.66832 22.8541 3.89465L13.5276 5.32705C10.8284 5.73928 8.14665 6.3243 5.4804 7.03018C3.75804 7.48888 2.04342 8.008 0.339029 8.5788C2.32749 8.71394 4.31547 8.75954 6.30296 8.71557C7.60434 8.67354 8.90018 8.6317 10.1839 8.48622C11.0143 8.40306 11.8442 8.30691 12.69 8.18858C13.2013 8.11572 13.7087 8.01265 14.2192 7.91815L18.3177 7.17901C19.8799 6.89885 21.4413 6.59705 23.0098 6.33836L27.8481 5.54499C29.2978 5.30314 30.7518 5.10448 32.2022 4.88427C33.6527 4.66407 35.0385 4.49796 36.4569 4.31346C37.8753 4.12896 39.3168 3.96539 40.7498 3.80209C42.1829 3.63878 43.6649 3.52157 45.1241 3.38776C47.7876 3.14138 50.4579 3.00312 53.1263 2.89094C54.6136 2.8429 56.0945 2.6954 57.5761 2.56954C59.0578 2.44367 60.4968 2.28883 61.9542 2.10741C62.546 2.03195 63.141 1.9694 63.7315 1.85931C64.0178 1.80906 64.3017 1.73479 64.5818 1.63682C64.8285 1.54651 65.0714 1.42598 65.3212 1.34423L65.5475 1.30224C65.5475 1.30224 65.5587 1.30622 65.556 1.30631Z" fill="#263238"/>
</svg>
