<svg width="149" height="149" viewBox="0 0 149 149" fill="none" xmlns="http://www.w3.org/2000/svg">
<path d="M-10.3335 145.422C-9.12876 144.647 -8.06726 143.669 -7.19594 142.532C-6.76462 141.922 -6.29617 141.34 -5.79327 140.788C-5.40025 140.349 -5.03578 139.885 -4.70208 139.4C-4.4231 138.935 -4.05005 138.534 -3.60687 138.222C-3.18893 137.93 -2.83365 137.557 -2.5619 137.126C-2.01873 136.394 -1.39596 135.726 -0.705079 135.131C0.749141 133.89 1.0191 133.169 0.431745 132.001C-0.00358181 131.17 0.317294 130.273 0.967678 130.35C1.29846 130.308 1.6012 130.143 1.81502 129.887C2.27655 129.377 2.34822 129.383 3.65831 130.54C4.57258 131.293 5.58272 131.922 6.66231 132.41C7.64941 132.841 8.57327 133.404 9.40845 134.084C10.9965 135.712 11.7346 135.861 19.1889 137.167C22.1641 137.663 22.6277 137.644 23.1327 137.217C23.7396 136.878 24.4275 136.712 25.1221 136.735C25.806 136.729 26.4885 136.673 27.1643 136.568L28.6453 136.209C29.2706 135.995 29.7907 135.551 30.0995 134.967C30.3481 134.545 30.6902 134.185 31.0995 133.915C31.5088 133.646 31.9745 133.473 32.4607 133.412C33.1397 133.165 33.8439 132.994 34.5606 132.903C35.5186 132.608 36.338 131.977 36.8682 131.127C36.8983 130.768 37.9694 129.877 43.3898 125.591C44.3219 124.845 45.0375 123.864 45.4623 122.748C45.883 121.781 46.3465 120.99 46.5455 120.941C47.3471 122.378 47.8145 123.976 47.913 125.618C48.2494 126.623 48.8151 127.535 49.5653 128.283C50.9704 130.026 51.2698 130.585 51.176 131.356C51.1297 131.716 51.1698 132.081 51.2931 132.421C51.4163 132.762 51.6191 133.068 51.8846 133.314C52.4074 133.981 52.8244 134.725 53.1209 135.519C54.459 138.314 56.4144 140.769 58.8394 142.698C59.7961 143.327 60.6856 144.052 61.4937 144.863C61.8392 145.282 62.2435 145.649 62.694 145.953C62.8487 145.915 63.1441 146.265 63.3899 146.603C63.6357 146.942 64.0911 147.276 66.633 147.432C67.7778 147.566 68.9336 147.576 70.0806 147.462C70.5447 147.35 70.8863 147.407 71.4396 147.952C71.7547 148.315 72.1599 148.588 72.6144 148.744C73.5243 148.492 74.4051 148.146 75.2421 147.709C76.1575 147.191 77.1603 146.844 78.2007 146.688C79.2144 146.524 80.1473 146.035 80.8586 145.295C81.8828 144.479 82.9751 143.752 84.1234 143.123C84.4975 142.993 84.8389 142.783 85.1238 142.508C85.4087 142.233 85.6303 141.899 85.7732 141.529C86.0439 140.715 86.1879 140.633 86.8041 140.858C87.4203 141.083 88.1336 140.84 89.6817 138.827C90.3486 137.938 91.1575 137.164 92.0757 136.538C92.8839 136.079 93.532 135.383 93.9325 134.544C94.4472 133.651 95.0844 132.835 95.8256 132.119C96.3782 131.685 96.8443 131.152 97.1994 130.546C97.1458 130.325 97.667 129.964 98.2035 129.764C98.74 129.564 99.3174 129.049 99.8225 127.851C100.253 126.902 100.831 126.027 101.535 125.259C102.032 124.84 102.408 124.296 102.627 123.684C103.511 121.396 104.656 119.218 106.039 117.193C107.249 115.332 107.422 115.173 107.976 115.53C108.129 115.639 108.253 115.782 108.339 115.949C108.424 116.116 108.468 116.301 108.466 116.488C108.378 117.188 108.916 117.479 110.845 117.714C111.836 117.851 112.785 118.204 113.624 118.749C114.045 119.072 114.531 119.302 115.049 119.423C115.566 119.544 116.104 119.553 116.625 119.449C118.057 119.425 119.488 119.541 120.898 119.794L123.355 120.275L125.704 118.863C126.85 118.209 127.907 117.41 128.849 116.486C129.125 116.032 129.563 115.7 130.075 115.557C130.249 115.541 130.418 115.489 130.57 115.403C130.723 115.318 130.856 115.201 130.961 115.061C131.05 114.927 131.166 114.811 131.301 114.722C131.437 114.633 131.588 114.572 131.748 114.543C132.11 114.482 132.444 114.311 132.706 114.053C132.976 113.783 133.332 113.614 133.713 113.575C134.303 113.239 134.814 112.78 135.212 112.229C135.895 111.41 136.619 110.625 137.38 109.878C137.989 109.347 138.392 108.62 138.521 107.823C138.642 107.09 138.984 106.412 139.5 105.877C140.738 104.671 141.524 103.076 141.728 101.359C141.891 100.141 142.147 98.9363 142.493 97.7568C142.794 96.969 142.964 96.1373 142.996 95.2946C142.916 94.9631 143.117 94.6335 143.571 94.383C144.025 94.1326 144.242 93.8693 144.218 92.6114C143.988 91.0504 144.266 89.4566 145.012 88.0661C145.531 87.2148 145.6 86.9174 145.345 86.2536C145.145 85.5152 145.04 84.7545 145.03 83.9897C144.962 82.7425 145.058 82.4618 145.746 81.9207C146.434 81.3795 146.518 81.1484 146.367 79.9447C146.198 79.0291 146.302 78.0838 146.668 77.2273C146.893 76.7934 147.013 76.3122 147.016 75.8232C147.02 75.3341 146.907 74.8513 146.688 74.4141C146.147 72.1368 146.25 69.7539 146.986 67.5318C147.232 66.6233 147.265 65.6702 147.083 64.7468C146.916 63.7506 146.972 62.7298 147.248 61.7581C147.564 59.973 147.552 59.3441 147.257 58.9944C146.968 58.6509 146.787 58.2296 146.738 57.7836C146.688 57.3376 146.771 56.8868 146.977 56.488C148.088 55.4699 148.332 49.1389 147.391 47.2841C147.075 46.6585 147.198 46.4884 147.608 46.1549C148.019 45.8213 148.149 45.392 148.108 44.2553C148.066 43.1186 148.099 42.3852 148.124 41.9109C148.291 40.477 148.201 39.025 147.857 37.6228C147.176 36.3903 146.937 34.9616 147.18 33.5745C147.319 32.5595 147.197 31.5261 146.827 30.571C146.518 29.7364 146.307 28.8684 146.2 27.9848C146.06 26.0201 145.593 24.0926 144.818 22.282C144.259 21.8634 143.635 21.5401 142.971 21.3254C142.157 21.0547 141.293 20.6789 141.03 20.5557C140.766 20.4324 140.356 20.5784 139.804 21.3909C139.424 21.9953 138.871 22.4717 138.217 22.7585C137.465 22.9407 137.381 23.1717 137.437 23.8838C137.492 24.5958 137.545 25.6829 137.575 26.8691C137.637 28.2146 137.782 29.555 138.01 30.8827C138.18 32.209 138.246 33.5467 138.207 34.8834C137.915 38.0204 138.005 41.1811 138.476 44.2963C138.728 45.1034 138.775 45.9609 138.612 46.7907C138.222 49.338 138.25 51.9318 138.695 54.4701C139.006 55.7521 138.951 56.3972 138.707 56.6436C138.594 56.7884 138.516 56.9568 138.479 57.1363C138.441 57.3157 138.445 57.5014 138.49 57.6791C138.499 60.8575 138.299 64.0329 137.892 67.1851C137.712 68.5853 137.701 70.0022 137.861 71.4049C138.048 72.8313 137.738 74.2785 136.982 75.5027C136.346 77.0052 136.256 78.683 136.728 80.245C136.984 80.9678 137.106 81.7315 137.086 82.4982C136.713 84.0532 136.093 85.5385 135.251 86.8981C134.946 87.6722 134.812 88.5029 134.858 89.3335C134.827 90.558 134.731 91.7047 134.697 91.8534C133.909 93.7897 133.24 95.7727 132.696 97.7911C132.441 98.5791 132.049 99.3158 131.538 99.9673C130.603 101.152 129.977 102.55 129.716 104.036C129.754 104.191 129.547 104.498 129.303 104.745C128.392 105.527 127.12 107.614 127.22 108.222C127.24 108.438 127.207 108.656 127.124 108.856C127.042 109.057 126.912 109.234 126.745 109.374C126.579 109.513 126.381 109.61 126.169 109.656C125.957 109.702 125.737 109.696 125.527 109.638C125.038 109.453 124.391 109.586 123.317 110.174C121.225 111.196 117.499 111.467 116.804 110.723C116.416 110.376 115.93 110.158 115.413 110.101C113.428 109.704 111.601 108.741 110.153 107.327C109.646 106.584 109.604 106.219 109.912 104.787C110.066 103.918 110.324 103.069 110.681 102.261C110.936 101.776 111.15 101.27 111.321 100.749C111.479 100.296 111.752 99.8909 112.112 99.5738C112.309 99.4224 112.46 99.2193 112.549 98.9872C112.637 98.755 112.659 98.5029 112.613 98.2589C112.682 97.3756 112.936 96.5166 113.359 95.7378C114.417 93.6326 114.429 93.4893 113.433 92.3734L112.629 91.3746L113.522 90.7136C114.465 90.0639 114.465 90.0639 114.144 88.6439C113.823 87.2239 113.942 86.8441 114.662 84.0249C115.095 82.2352 115.739 79.2941 116.089 77.4541C116.639 74.6061 116.649 73.9718 116.321 73.4895C115.994 73.0072 116.123 72.6717 116.372 71.7688C117.305 69.4365 117.426 68.6817 116.962 68.0219C116.498 67.3621 116.587 66.4746 116.751 62.8074C116.841 61.7357 116.769 60.6566 116.537 59.6064C116.331 59.0588 116.276 58.4657 116.379 57.8896C116.477 57.3204 116.392 56.7345 116.137 56.2164C115.912 55.2881 115.81 54.8681 116.061 54.4562C116.275 54.0965 116.347 53.6703 116.263 53.2606C116.226 52.3761 116.344 51.4919 116.613 50.6483C117.111 48.8425 117.123 48.6992 116.473 47.8505C116.073 47.1857 115.886 46.4143 115.937 45.6401C115.96 43.5966 115.772 41.5561 115.374 39.5515C115.181 38.9724 115.112 38.3592 115.172 37.7517C115.245 37.1588 115.2 36.5573 115.041 35.9816C114.881 35.4059 114.61 34.8673 114.242 34.3966C113.776 33.7693 113.441 33.0546 113.256 32.2951C113.072 31.5356 113.043 30.7468 113.17 29.9757C113.366 29.0077 113.229 28.0019 112.783 27.121C112.47 26.3272 112.268 25.4942 112.183 24.6454C112.204 24.2842 112.163 23.9221 112.063 23.5743C111.82 22.7918 111.626 21.9944 111.485 21.1871C111.341 20.1809 111.041 19.2034 110.595 18.2901C110.079 17.2188 109.632 16.1155 109.257 14.9872C108.815 13.7227 108.18 12.5345 107.373 11.4652C106.95 11.0313 106.599 10.5313 106.336 9.98488C105.926 9.17874 105.428 8.42037 104.852 7.72352C104.043 6.60893 103.159 5.27861 102.876 4.78562C102.463 3.94967 102.303 3.87131 101.139 3.89602C99.9751 3.92074 99.7775 3.78143 99.7299 3.48872C99.6824 3.19601 99.0669 2.87715 98.4118 2.68489C97.7071 2.43204 97.0661 2.02828 96.5337 1.50188L95.8445 0.686017L94.253 1.07174C93.4074 1.33112 92.5071 1.35517 91.6488 1.14129C90.768 0.886711 90.4143 0.972428 89.0405 1.77345C87.958 2.45032 86.919 3.19453 85.9298 4.00172C84.4762 5.14971 84.3148 5.35265 84.2551 6.74786C84.1954 8.14308 83.2657 9.32795 82.5269 9.27297C82.4229 9.25052 82.3152 9.25186 82.2119 9.27691C82.1085 9.30195 82.0122 9.35007 81.9301 9.41762C80.8847 11.8368 80.1402 14.3751 79.7133 16.9757C79.0841 20.8491 79.0493 21.0916 79.3493 21.5571C79.482 22.8486 79.3525 24.1536 78.9687 25.3938L78.3261 28.8259L79.0542 29.6089C79.6998 30.3417 79.7213 30.4301 79.2162 30.8568C78.7111 31.2834 78.6656 31.4817 79.0446 33.2386C79.285 34.4407 79.3468 35.6717 79.2279 36.8918C79.0584 38.22 79.1153 38.7445 79.5426 39.1558C79.8437 39.5288 79.9991 39.9984 79.98 40.4773C79.9357 41.1462 79.9419 41.8175 79.9986 42.4854C80.1754 43.2148 80.1941 44.4507 80.255 45.1848C80.3159 45.9189 80.2884 46.6744 79.8825 47.1239C79.4766 47.5733 79.4739 47.9484 80.0732 49.7455C80.5232 51.0135 80.841 52.3246 81.0215 53.6579C81.1367 54.8312 81.363 55.991 81.6971 57.1216C81.9505 57.994 82.0521 58.9034 81.9978 59.8102C82.0521 62.1285 82.7294 64.3894 83.9586 66.3557C84.4089 67.1071 84.5507 68.0037 84.3543 68.8574C84.227 69.7114 84.2943 70.5831 84.5511 71.4074C84.8428 72.1573 84.9888 72.9559 84.981 73.7605C84.9595 75.2167 85.1377 75.7585 86.9379 79.324C87.4388 80.3793 87.7891 81.4997 87.9786 82.6524C87.9998 84.1993 88.4471 85.7104 89.2711 87.0196C89.6605 87.6908 89.9949 88.3924 90.2711 89.1175C90.435 89.6361 90.7579 90.09 91.194 90.415C91.666 90.9018 92.0326 91.4806 92.271 92.1154C92.5094 92.7502 92.6145 93.4272 92.5796 94.1044C92.7286 95.2167 93.1304 96.2802 93.7543 97.2131C94.442 98.4907 94.9677 99.8491 95.3195 101.257C95.7963 103.224 95.8123 103.29 97.811 104.585C98.3681 105.063 98.7904 105.678 99.0361 106.37C99.2818 107.061 99.3422 107.805 99.2113 108.528C98.902 109.728 98.4433 110.885 97.8461 111.971C97.1755 113.163 96.2464 115.027 95.7527 116.176C95.1063 117.589 94.3762 118.961 93.5662 120.287C92.8291 121.499 92.1644 122.754 91.5753 124.046C91.2419 124.883 90.7301 125.638 90.0755 126.258C89.3485 126.863 88.7328 127.59 88.2562 128.407C87.8748 129.205 87.2602 129.868 86.4938 130.309C85.5646 130.795 84.7637 131.494 84.1568 132.349C82.7513 134.083 80.965 135.469 78.9367 136.4C78.3447 136.553 77.7979 136.846 77.3419 137.254C76.8577 137.688 76.2707 137.992 75.6365 138.136C74.7782 138.211 73.9361 138.415 73.1387 138.741C72.46 139.058 71.7247 139.236 70.976 139.265C70.2274 139.294 69.4806 139.172 68.7796 138.908C65.3482 138.172 64.9865 137.838 60.6531 131.353C58.7537 128.537 58.3405 127.701 58.4403 126.858C58.3333 126.04 58.0241 125.263 57.5409 124.595C56.8712 123.508 56.3508 122.335 55.9938 121.109C55.3421 119.176 54.5423 117.296 53.6015 115.487L51.7028 111.805L52.4645 110.216C52.9126 109.265 53.4525 108.596 53.7674 108.543C54.0822 108.49 54.6314 108.053 55.1808 105.298C55.4737 103.091 56.1421 100.95 57.1571 98.9687C57.4155 98.6574 57.6229 98.3069 57.7714 97.9305C57.9524 97.6113 58.2079 97.3406 58.5162 97.1415C59.0823 96.6767 59.2337 96.3358 59.2129 95.3813C59.1922 94.4268 59.3543 94.1301 59.5479 94.0598C59.9635 92.9249 60.1956 91.7311 60.2353 90.5232C60.3394 89.1658 60.5613 87.82 60.8986 86.501C61.1123 85.7384 61.0558 84.9253 60.7387 84.1996C60.4065 82.8291 60.278 82.2986 60.9031 78.2155C61.5282 74.1323 61.5591 73.6802 60.9623 73.0526C60.5067 72.3097 60.2317 71.4702 60.1593 70.6017C60.087 69.7332 60.2194 68.8598 60.546 68.0517C61.2286 66.7162 61.2125 66.6499 60.153 64.4026C59.7045 63.5981 59.3973 62.7227 59.2448 61.8144C59.1802 60.6367 58.7593 59.5064 58.038 58.5731C56.7486 56.3467 55.7057 53.9863 54.9278 51.5339C54.2165 50.1016 53.1139 48.9001 51.7477 48.0688C50.913 47.2474 50.2224 46.2914 49.7049 45.2408C48.8582 44.842 47.9367 44.6267 47.0009 44.609L44.3338 44.2257L42.5319 45.4815C40.0678 46.8786 38.127 49.0416 37.0043 51.6422C36.7786 52.0652 36.4589 52.4309 36.0699 52.7111C35.2654 53.3508 35.1977 53.5544 35.2271 54.8344C35.282 55.6402 35.2337 56.9858 35.1948 57.7909C35.1559 58.596 35.1137 59.87 35.1532 60.5157C35.1926 61.1614 35.0781 61.7508 34.6742 61.9189C34.2703 62.087 33.9507 62.7963 34.4363 64.3168C35.3156 67.0758 35.5607 68.2802 35.4541 68.5166C35.3225 69.0052 35.3576 69.5238 35.5539 69.9902C35.795 70.9849 35.87 71.2943 35.4359 71.8208C35.0018 72.3472 34.9877 72.7719 36.5663 76.4847C37.1754 77.5941 37.3953 78.8755 37.191 80.1245C37.0922 81.97 37.2723 83.8199 37.7252 85.6117C38.209 87.4543 38.3872 89.3639 38.2528 91.2642C38.031 92.9562 38.0725 93.3205 38.6632 94.0198C38.8761 94.2616 39.0352 94.5458 39.13 94.8536C39.2247 95.1615 39.2531 95.486 39.213 95.8056C39.1548 96.0906 39.1602 96.385 39.2287 96.6677C39.2972 96.9504 39.4272 97.2145 39.6095 97.4413C40.0109 97.8571 40.3088 98.3615 40.4793 98.9137C40.6497 99.466 40.6878 100.051 40.5906 100.62C40.5015 100.914 40.4731 101.224 40.5069 101.529C40.5408 101.835 40.6362 102.13 40.7874 102.398C41.0155 102.875 41.1414 103.395 41.1571 103.923C41.1286 104.426 41.2497 104.926 41.5053 105.36C41.7719 105.934 41.9658 106.54 42.0826 107.162C42.2335 108.013 42.1624 108.889 41.8763 109.704C41.5902 110.52 41.0988 111.247 40.4493 111.817C39.699 112.706 39.0207 113.653 38.421 114.649C38.1691 115.155 37.666 116.073 37.309 116.627C37.0235 117.04 36.794 117.489 36.6264 117.963C34.8595 120.436 32.7334 122.631 30.3184 124.476C27.1012 126.941 26.5808 127.208 24.5097 127.546C20.7661 128.302 16.8774 127.787 13.4599 126.082C11.9809 124.928 10.703 123.538 9.67769 121.967C9.17776 121.362 8.6402 120.788 8.06821 120.251C7.24076 119.72 6.63905 118.902 6.37902 117.953C6.11898 117.005 6.21902 115.995 6.65987 115.116C6.98192 114.177 7.13835 113.188 7.1222 112.196C7.03602 111.48 7.08238 110.755 7.25894 110.056C7.37025 109.777 7.42524 109.479 7.42077 109.179C7.4163 108.879 7.35246 108.583 7.23292 108.307C6.9737 107.427 6.93304 106.497 7.11451 105.598C7.25238 104.577 7.26909 103.544 7.16424 102.52C6.70106 100.638 6.56948 98.6905 6.77539 96.7637C6.97837 96.1529 6.83372 95.5561 6.17537 94.2881C5.76783 93.6322 5.47456 92.912 5.30807 92.158C5.16444 91.6295 4.90191 91.1408 4.54054 90.7293C4.01338 90.0661 3.5702 89.3403 3.22112 88.5684C2.66324 87.1356 2.32165 87.078 -0.593395 87.4101C-4.66787 87.8827 -5.0892 88.1721 -4.67003 90.481C-4.52809 90.9569 -4.48897 91.4575 -4.5553 91.9497C-4.62161 92.4419 -4.79182 92.9143 -5.05465 93.3357C-5.79353 94.8253 -5.93087 95.5139 -5.64422 96.3103C-5.3343 97.5344 -5.17113 98.7911 -5.15814 100.054C-5.42357 101.717 -5.60319 103.393 -5.69627 105.075C-5.93733 106.771 -5.83723 108.497 -5.40182 110.153C-5.13751 110.985 -4.93164 111.834 -4.78573 112.695C-4.67467 113.254 -4.46564 113.79 -4.16826 114.277C-3.57351 115.186 -3.53329 114.965 -4.39084 118.379C-4.62713 119.498 -5.01928 120.578 -5.55581 121.587C-6.05515 122.539 -6.33596 123.59 -6.37782 124.665C-6.68204 127.079 -6.71621 127.227 -7.86499 128.184C-8.62826 128.894 -9.34323 129.654 -10.0052 130.458C-10.9684 131.698 -10.9745 131.77 -10.5672 132.677C-10.1601 133.585 -10.3208 133.694 -11.3357 135.204C-11.7791 135.804 -12.2682 136.368 -12.7986 136.892C-12.9754 136.935 -13.4128 136.386 -13.8374 135.6C-14.8112 133.706 -15.0363 133.55 -16.7978 133.041L-18.3123 132.682L-20.5696 134.376C-23.3206 136.447 -23.4278 136.777 -22.4279 138.875C-22.1071 139.523 -21.6135 140.69 -21.2827 141.476C-21.1624 141.898 -20.954 142.289 -20.6711 142.624C-20.3882 142.959 -20.0373 143.23 -19.6417 143.419C-18.8467 143.867 -18.1096 144.412 -17.4469 145.04C-16.4 145.98 -16.0865 146.114 -14.9994 146.061C-13.9123 146.008 -13.7094 146.17 -13.6062 146.402C-13.3022 147.078 -12.5835 146.857 -10.3603 145.311L-10.3335 145.422ZM47.9266 95.3553C47.857 92.7132 47.4419 90.0916 46.6919 87.5573C46.5043 87.4091 46.3717 87.2022 46.3155 86.9698C46.3155 86.9698 45.9673 85.533 45.5923 83.9858C45.1557 82.5275 44.8707 81.0281 44.7418 79.5114C44.7717 78.7435 44.6341 77.9783 44.3387 77.2688C43.9128 76.67 43.9241 76.6204 44.4835 76.3211C45.0428 76.0217 45.2149 75.8629 44.3423 72.9385C43.9591 71.9041 43.6984 70.8284 43.5655 69.7334C43.5998 69.295 43.5563 68.8539 43.437 68.4306C43.3504 68.24 43.3243 68.0275 43.3623 67.8216C43.4002 67.6157 43.5004 67.4264 43.6493 67.2792C44.0003 66.7963 43.9769 66.2169 43.4707 63.742C42.9725 61.6863 42.9531 60.5442 43.1762 60.2093C43.6716 58.6526 43.8705 57.0168 43.7625 55.3867C43.6889 54.1174 43.7398 53.9413 44.3815 53.6922C45.0232 53.443 45.3099 53.4672 46.3574 54.3132C47.4049 55.1592 47.7499 55.5202 48.6426 57.9484C49.6425 60.8185 49.6659 62.1702 48.9196 63.1468C48.5686 63.6297 48.643 64.0329 49.4439 66.1791C50.0124 67.4732 50.3479 68.8575 50.435 70.2683C50.3968 70.9521 50.4758 71.6374 50.6687 72.2945C50.7921 73.5396 50.7664 74.795 50.5922 76.034C50.3817 77.2899 50.3762 78.5716 50.5759 79.8292C50.8163 80.1453 50.7098 80.3818 50.5095 80.6176C50.3092 80.8533 50.1846 81.3047 50.3272 82.1829C50.4032 83.676 50.253 85.1721 49.8816 86.6204C49.5072 88.542 49.2591 90.4862 49.1391 92.4403C48.9675 96.3667 48.9286 97.1718 48.4617 96.8871C48.1955 96.4659 48.0751 95.9689 48.1189 95.4725L47.9266 95.3553ZM100.043 92.6466C98.5313 91.0098 97.7142 88.8502 97.7637 86.6229C97.4704 85.1274 97.0147 83.6684 96.4049 82.2717C95.8219 80.8654 95.3886 79.4016 95.1124 77.9045C95.0236 76.8713 94.7779 75.8576 94.3838 74.8983C93.9076 73.6096 93.3404 71.9451 93.1033 71.16C92.8662 70.375 92.3686 68.9979 92.0538 68.2785C91.2066 66.4244 91.0553 65.2207 91.5939 64.7391C92.1324 64.2576 91.902 64.0794 91.6717 63.1289C91.4413 62.1785 91.1359 60.9185 90.8091 59.5702C90.6686 58.6543 90.4499 57.7521 90.1555 56.8735C89.6731 55.3175 89.5307 53.676 89.7378 52.0602C89.7619 50.3119 89.3436 48.5859 88.5217 47.0426C88.1917 46.1217 88.0124 45.1537 87.9907 44.1758C87.9846 43.1944 87.8807 42.2161 87.6807 41.2554C87.5404 40.0097 87.518 38.7536 87.6139 37.5038C87.697 35.7629 87.565 34.0186 87.221 32.31C86.7349 30.9613 86.7416 29.484 87.24 28.1398C87.8149 26.5588 87.9041 24.8421 87.4961 23.21C87.3627 22.7827 87.3836 22.3221 87.5552 21.9086C87.9832 20.6815 89.0572 16.3258 89.567 13.6981L89.9797 11.5387L91.4581 10.7825C93.3403 9.85828 94.211 9.97488 94.7709 11.1263C95.5083 12.3687 96.3079 13.573 97.1666 14.7347C98.7869 16.9781 100.005 19.4863 100.765 22.147C101.257 23.7626 101.888 25.3323 102.651 26.8385C102.806 26.801 103.034 27.3542 103.145 27.9122C103.413 28.8638 103.771 29.788 104.212 30.6726C104.731 31.5373 104.974 32.5397 104.909 33.5461C104.843 34.3162 104.905 35.092 105.091 35.8422C105.278 36.6403 105.374 37.4572 105.377 38.277C105.565 40.7995 105.96 43.3023 106.558 45.7602C106.835 47.3022 106.853 48.8794 106.613 50.4274C106.375 52.8254 106.365 53.4596 106.754 53.81C107.563 56.1716 107.852 58.6802 107.601 61.1639C107.495 62.0788 107.17 65.0829 106.879 67.8445C106.581 71.7314 106.54 72.9116 106.874 73.2285C107.208 73.5453 107.178 73.9037 106.788 75.1917C106.417 76.5082 106.282 77.8799 106.389 79.2434C106.468 80.6149 106.393 81.9909 106.167 83.3459L105.688 85.4277C105.742 85.6487 105.562 86.839 105.548 88.0359C105.677 89.3955 105.298 90.7546 104.484 91.8511C104.028 92.5688 103.665 93.3409 103.402 94.1492C103.138 96.3428 102.33 96.0005 99.9269 92.6513L100.043 92.6466Z" fill="#ED037C"/>
</svg>
