<svg width="30" height="30" viewBox="0 0 30 30" fill="none" xmlns="http://www.w3.org/2000/svg">
<path d="M26.1558 6.35831C25.1745 8.18956 23.0808 9.87081 21.6808 11.4333C20.762 12.4521 18.3245 14.1146 18.512 15.3958C18.6308 16.1771 20.8308 17.6958 21.412 18.2271C22.2433 18.9833 23.812 19.9583 24.3245 20.9646C25.3433 22.9521 23.6995 23.6333 21.9433 23.0333C19.5183 22.1958 18.312 20.1958 16.3183 18.8146C15.0308 17.9208 15.6933 17.9771 14.4745 18.7396C13.6183 19.2771 12.8745 20.2833 12.137 20.9958C10.2282 22.9434 8.21477 24.7857 6.1058 26.5146C5.13705 27.2583 2.9433 28.2771 3.13705 26.1521C3.2808 24.6021 6.69954 22.0333 7.69954 20.9958C8.69954 19.9583 12.7433 16.9208 12.7933 15.3708C12.8495 13.6958 4.47454 7.14582 7.58079 5.37082C8.78079 4.68957 11.5183 8.34582 12.3183 9.15207C12.8433 9.67707 14.7558 12.2396 15.4433 12.2771C16.1308 12.3146 16.4183 11.8458 17.012 11.2708C18.6857 9.54689 20.4596 7.92324 22.3245 6.40833C23.1433 5.78333 26.4183 3.63957 26.1558 6.30207V6.35831Z" fill="#ED0357"/>
</svg>
